<mxfile host="app.diagrams.net" agent="Mozilla/5.0 (Windows NT 10.0; Win64; x64) AppleWebKit/537.36 (KHTML, like Gecko) Chrome/135.0.0.0 Safari/537.36 Edg/135.0.0.0" version="26.2.13" pages="2">
  <diagram name="Страница — 1" id="S4aUzaoJtZbT6Kf8tYL_">
    <mxGraphModel dx="1551" dy="691" grid="0" gridSize="10" guides="1" tooltips="1" connect="1" arrows="1" fold="1" page="0" pageScale="1" pageWidth="827" pageHeight="1169" math="0" shadow="0">
      <root>
        <mxCell id="0" />
        <mxCell id="1" parent="0" />
        <mxCell id="Bn9bNSvAVWuCftRxsZD8-11" style="edgeStyle=none;curved=1;rounded=0;orthogonalLoop=1;jettySize=auto;html=1;exitX=1;exitY=0.5;exitDx=0;exitDy=0;entryX=0;entryY=0.5;entryDx=0;entryDy=0;fontSize=12;startSize=8;endSize=8;" edge="1" parent="1" source="Bn9bNSvAVWuCftRxsZD8-1" target="Bn9bNSvAVWuCftRxsZD8-5">
          <mxGeometry relative="1" as="geometry" />
        </mxCell>
        <mxCell id="Bn9bNSvAVWuCftRxsZD8-14" style="edgeStyle=none;curved=1;rounded=0;orthogonalLoop=1;jettySize=auto;html=1;exitX=0.5;exitY=1;exitDx=0;exitDy=0;entryX=0.5;entryY=0;entryDx=0;entryDy=0;fontSize=12;startSize=8;endSize=8;" edge="1" parent="1" source="Bn9bNSvAVWuCftRxsZD8-1" target="Bn9bNSvAVWuCftRxsZD8-6">
          <mxGeometry relative="1" as="geometry">
            <Array as="points">
              <mxPoint x="110" y="138" />
            </Array>
          </mxGeometry>
        </mxCell>
        <mxCell id="Bn9bNSvAVWuCftRxsZD8-1" value="поиск книги" style="rounded=0;whiteSpace=wrap;html=1;" vertex="1" parent="1">
          <mxGeometry x="22" y="96" width="76" height="38" as="geometry" />
        </mxCell>
        <mxCell id="Bn9bNSvAVWuCftRxsZD8-2" value="пользователь" style="shape=umlActor;verticalLabelPosition=bottom;verticalAlign=top;html=1;outlineConnect=0;" vertex="1" parent="1">
          <mxGeometry x="-108" y="96" width="35" height="60" as="geometry" />
        </mxCell>
        <mxCell id="Bn9bNSvAVWuCftRxsZD8-4" style="edgeStyle=none;curved=1;rounded=0;orthogonalLoop=1;jettySize=auto;html=1;exitX=1;exitY=0.3333333333333333;exitDx=0;exitDy=0;exitPerimeter=0;entryX=0;entryY=0.5;entryDx=0;entryDy=0;fontSize=12;startSize=8;endSize=8;" edge="1" parent="1" source="Bn9bNSvAVWuCftRxsZD8-2" target="Bn9bNSvAVWuCftRxsZD8-1">
          <mxGeometry relative="1" as="geometry">
            <mxPoint x="-73" y="116.59" as="sourcePoint" />
            <mxPoint x="33.639999999999986" y="135.41000000000005" as="targetPoint" />
          </mxGeometry>
        </mxCell>
        <mxCell id="Bn9bNSvAVWuCftRxsZD8-5" value="каталог" style="rounded=0;whiteSpace=wrap;html=1;" vertex="1" parent="1">
          <mxGeometry x="131" y="96" width="76" height="38" as="geometry" />
        </mxCell>
        <mxCell id="Bn9bNSvAVWuCftRxsZD8-18" style="edgeStyle=none;curved=1;rounded=0;orthogonalLoop=1;jettySize=auto;html=1;exitX=0.5;exitY=1;exitDx=0;exitDy=0;fontSize=12;startSize=8;endSize=8;" edge="1" parent="1" source="Bn9bNSvAVWuCftRxsZD8-6" target="Bn9bNSvAVWuCftRxsZD8-7">
          <mxGeometry relative="1" as="geometry" />
        </mxCell>
        <mxCell id="Bn9bNSvAVWuCftRxsZD8-6" value="выбор и добавление в корзину" style="rounded=0;whiteSpace=wrap;html=1;" vertex="1" parent="1">
          <mxGeometry x="74" y="166" width="76" height="38" as="geometry" />
        </mxCell>
        <mxCell id="Bn9bNSvAVWuCftRxsZD8-23" style="edgeStyle=none;curved=1;rounded=0;orthogonalLoop=1;jettySize=auto;html=1;exitX=0.5;exitY=1;exitDx=0;exitDy=0;entryX=0.5;entryY=0;entryDx=0;entryDy=0;fontSize=12;startSize=8;endSize=8;" edge="1" parent="1" source="Bn9bNSvAVWuCftRxsZD8-7" target="Bn9bNSvAVWuCftRxsZD8-8">
          <mxGeometry relative="1" as="geometry" />
        </mxCell>
        <mxCell id="Bn9bNSvAVWuCftRxsZD8-7" value="оформление заказа" style="rounded=0;whiteSpace=wrap;html=1;" vertex="1" parent="1">
          <mxGeometry x="74" y="224" width="76" height="38" as="geometry" />
        </mxCell>
        <mxCell id="Bn9bNSvAVWuCftRxsZD8-22" style="edgeStyle=none;curved=1;rounded=0;orthogonalLoop=1;jettySize=auto;html=1;exitX=0.5;exitY=1;exitDx=0;exitDy=0;entryX=0.5;entryY=0;entryDx=0;entryDy=0;fontSize=12;startSize=8;endSize=8;" edge="1" parent="1" source="Bn9bNSvAVWuCftRxsZD8-8" target="Bn9bNSvAVWuCftRxsZD8-10">
          <mxGeometry relative="1" as="geometry" />
        </mxCell>
        <mxCell id="Bn9bNSvAVWuCftRxsZD8-8" value="платежный модуль(Sprite)" style="rounded=0;whiteSpace=wrap;html=1;" vertex="1" parent="1">
          <mxGeometry x="74" y="288" width="76" height="38" as="geometry" />
        </mxCell>
        <mxCell id="Bn9bNSvAVWuCftRxsZD8-21" style="edgeStyle=none;curved=1;rounded=0;orthogonalLoop=1;jettySize=auto;html=1;exitX=0;exitY=0.5;exitDx=0;exitDy=0;entryX=1;entryY=0.5;entryDx=0;entryDy=0;fontSize=12;startSize=8;endSize=8;" edge="1" parent="1" source="Bn9bNSvAVWuCftRxsZD8-9" target="Bn9bNSvAVWuCftRxsZD8-8">
          <mxGeometry relative="1" as="geometry" />
        </mxCell>
        <mxCell id="Bn9bNSvAVWuCftRxsZD8-9" value="ввод данных клиента" style="rounded=0;whiteSpace=wrap;html=1;" vertex="1" parent="1">
          <mxGeometry x="179" y="288" width="76" height="38" as="geometry" />
        </mxCell>
        <mxCell id="Bn9bNSvAVWuCftRxsZD8-10" value="подтверждение заказа" style="rounded=0;whiteSpace=wrap;html=1;" vertex="1" parent="1">
          <mxGeometry x="74" y="352" width="76" height="38" as="geometry" />
        </mxCell>
        <mxCell id="Bn9bNSvAVWuCftRxsZD8-17" value="" style="endArrow=none;html=1;rounded=0;fontSize=12;startSize=8;endSize=8;curved=1;exitX=0.5;exitY=0;exitDx=0;exitDy=0;entryX=0.529;entryY=1.008;entryDx=0;entryDy=0;entryPerimeter=0;" edge="1" parent="1" source="Bn9bNSvAVWuCftRxsZD8-6" target="Bn9bNSvAVWuCftRxsZD8-5">
          <mxGeometry width="50" height="50" relative="1" as="geometry">
            <mxPoint x="125" y="204" as="sourcePoint" />
            <mxPoint x="175" y="154" as="targetPoint" />
            <Array as="points">
              <mxPoint x="102" y="132" />
            </Array>
          </mxGeometry>
        </mxCell>
      </root>
    </mxGraphModel>
  </diagram>
  <diagram id="GSvKLah_zQHwec3qqA6l" name="Страница — 2">
    <mxGraphModel grid="0" page="0" gridSize="10" guides="1" tooltips="1" connect="1" arrows="1" fold="1" pageScale="1" pageWidth="827" pageHeight="1169" math="0" shadow="0">
      <root>
        <mxCell id="0" />
        <mxCell id="1" parent="0" />
      </root>
    </mxGraphModel>
  </diagram>
</mxfile>
